<svg width="150" height="132" viewBox="0 0 150 132" fill="none" xmlns="http://www.w3.org/2000/svg">
<path fill-rule="evenodd" clip-rule="evenodd" d="M32.3843 7.50858L2.88622 58.6788C0.199577 63.3393 0.214327 69.0816 2.92487 73.7283L32.3717 124.209C35.0598 128.817 39.9934 131.65 45.3284 131.65H105.56C110.962 131.65 115.947 128.746 118.61 124.046L147.215 73.5663C149.801 69.0024 149.816 63.4191 147.253 58.8421L118.597 7.67094C115.944 2.93384 110.938 0 105.509 0H45.3797C40.0171 0 35.0625 2.86273 32.3843 7.50858ZM28.8161 46.3727L28.8661 85.8313C28.8715 90.1297 31.1755 94.0968 34.9063 96.2316L68.7816 115.615C72.4883 117.736 77.043 117.727 80.7414 115.592L115.558 95.4905C119.303 93.3284 121.595 89.3186 121.558 84.9944L121.223 46.2472C121.187 42.0559 118.966 38.1872 115.365 36.0419L81.7042 15.9876C77.9706 13.7632 73.3261 13.7314 69.5624 15.9044L34.8161 35.9652C31.0986 38.1115 28.8107 42.08 28.8161 46.3727Z" fill="#FF0000"/>
<path d="M40.075 80.4424L40.0386 51.6639C40.0341 48.0867 41.9407 44.7796 45.0386 42.991L70.3897 28.3545C73.5262 26.5437 77.3966 26.5702 80.508 28.4239L105.058 43.0501C108.059 44.8379 109.909 48.0618 109.939 51.5545L110.184 79.8056C110.215 83.4091 108.305 86.7506 105.184 88.5524L79.7741 103.223C76.692 105.002 72.8965 105.01 69.8076 103.242L45.1085 89.1093C41.9996 87.3303 40.0796 84.0243 40.075 80.4424Z" fill="white"/>
</svg>
